<?xml version="1.0" encoding="UTF-8"?>
<svg id="Layer_1" data-name="Layer 1" xmlns="http://www.w3.org/2000/svg" viewBox="0 0 524.32 165.06">
  <defs>
    <style>
      .cls-1 {
        fill: #2c1433;
      }

      .cls-2 {
        fill: #6c4dff;
      }
    </style>
  </defs>
  <path class="cls-1" d="M352.28,163h-29.86l-1.4-2.57c-5.6,2.57-11.67,4.67-18.2,4.67-32.89,0-50.16-20.07-50.16-50.86V47h36.86v64.62c0,9.8,1.64,17.5,13.77,17.5,8.16,0,12.13-5.6,12.13-13.07V47h36.86v116Z"/>
  <polygon class="cls-1" points="500.42 162.96 455.16 162.96 436.73 133.56 417.83 162.96 372.57 162.96 415.5 103.93 374.67 47.01 419.7 47.01 436.5 72.67 453.3 47.01 498.79 47.01 457.96 103.93 500.42 162.96"/>
  <polygon class="cls-1" points="88.36 80.35 142.07 162.43 96.73 162.43 46.75 80.11 93.48 .13 135.79 .13 88.36 80.35"/>
  <rect class="cls-1" y=".13" width="38.6" height="162.29"/>
  <polygon class="cls-2" points="84.91 162.42 46.74 97.19 46.74 119.57 71.52 162.42 84.91 162.42"/>
  <polygon class="cls-2" points="78.28 21.69 76.97 0 56.12 9.07 62.31 12.55 46.75 39.72 46.75 62.41 72.55 18.09 78.28 21.69"/>
  <path class="cls-1" d="M207.17,43.51c-8.8,0-15.27,4.33-17.7,5.88l-1.89-2.39h-29.58v116h36.62v-71.44c0-8.39,3.5-13.06,13.07-13.06,4.43,0,9.1,1.63,13.3,3.27l13.29-28c-8.91-6.77-17.28-10.26-27.11-10.26Z"/>
  <g>
    <path class="cls-1" d="M510.61,47.01v1.55h-2.55v8.01h-1.92v-8.01h-2.55v-1.55h7.01Z"/>
    <path class="cls-1" d="M522.7,47.01v9.55h-1.92v-6.21l-2.56,6.21h-1.45l-2.57-6.21v6.21h-1.92v-9.55h2.18l3.04,7.1,3.04-7.1h2.16Z"/>
  </g>
</svg>