<?xml version="1.0" encoding="UTF-8"?>
<svg id="Calque_1" data-name="Calque 1" xmlns="http://www.w3.org/2000/svg" viewBox="0 0 969.94 331.71">
  <defs>
    <style>
      .cls-1 {
        fill: #11284e;
      }

      .cls-2 {
        fill: #e3aa00;
      }
    </style>
  </defs>
  <g>
    <path class="cls-1" d="M283.69,258.56c-.67-.45-1.39-.73-2.16-.87.52-.17,1.03-.38,1.53-.64.93-.5,1.67-1.2,2.23-2.1.56-.9.84-2.02.84-3.34,0-1.25-.31-2.37-.94-3.38-.62-1.01-1.56-1.81-2.81-2.41-1.25-.6-2.81-.9-4.7-.9h-9.51v26.42h9.89c1.86,0,3.43-.31,4.72-.94,1.29-.62,2.27-1.47,2.94-2.54.67-1.07,1.01-2.28,1.01-3.63,0-1.2-.28-2.29-.84-3.28-.56-.99-1.3-1.79-2.21-2.41ZM271.66,247.79h5.77c1.68,0,2.96.38,3.84,1.13.88.75,1.32,1.79,1.32,3.11s-.45,2.4-1.34,3.15c-.89.75-2.15,1.13-3.78,1.13h-5.8v-8.52ZM281.82,267.24c-.97.8-2.3,1.2-4.01,1.2h-6.15v-9.28h6c1.68,0,3.04.42,4.07,1.26,1.03.84,1.55,2,1.55,3.47s-.48,2.54-1.45,3.34Z"/>
    <path class="cls-1" d="M306.64,261.31c0,1.45-.25,2.72-.76,3.8-.51,1.08-1.22,1.93-2.12,2.54-.9.61-1.93.92-3.07.92-1.73,0-3.14-.58-4.22-1.74-1.08-1.16-1.62-2.79-1.62-4.91v-11.49h-3.44v12.33c0,1.81.34,3.37,1.01,4.7.67,1.32,1.63,2.35,2.86,3.07,1.23.73,2.68,1.09,4.33,1.09,1.4,0,2.68-.33,3.84-.99,1.16-.66,2.1-1.66,2.83-3,.14-.25.25-.53.36-.81v2.47c0,.64.19,1.14.57,1.51.38.37.88.55,1.49.55h1.41v-20.93h-3.47v10.88Z"/>
    <path class="cls-1" d="M317.98,241.95c-.79,0-1.44.24-1.95.73-.51.48-.76,1.08-.76,1.79s.27,1.35.8,1.83c.53.48,1.17.73,1.91.73s1.37-.24,1.91-.73c.53-.48.8-1.09.8-1.83s-.27-1.31-.8-1.79c-.53-.48-1.17-.73-1.91-.73Z"/>
    <rect class="cls-1" x="316.23" y="250.42" width="3.48" height="20.93"/>
    <path class="cls-1" d="M330.97,268.6c-.46,0-.85-.15-1.18-.46-.33-.31-.5-.75-.5-1.34v-23.71h-3.47v24.02c0,1.07.22,1.94.67,2.62.45.67,1.01,1.16,1.7,1.45s1.39.44,2.1.44c.89,0,1.65-.19,2.29-.57l-.76-2.6c-.25.1-.53.15-.84.15Z"/>
    <path class="cls-1" d="M343.78,268.28c-.32.14-.66.21-1.01.21-.53,0-.99-.18-1.36-.53-.37-.36-.55-.86-.55-1.53v-13.14h4.81v-2.86h-6.61c.38-.1.71-.27.97-.5.27-.23.48-.5.63-.82.15-.32.23-.66.23-1.01v-2.9h-3.55v3.51c0,.53-.15.95-.44,1.26-.29.31-.71.46-1.24.46h-1.87v2.86h3.55v13.02c0,1.58.49,2.86,1.47,3.84.98.98,2.2,1.47,3.65,1.47.76,0,1.48-.12,2.14-.36.66-.24,1.27-.62,1.83-1.13l-1.76-2.41c-.28.23-.58.41-.9.55Z"/>
    <path class="cls-1" d="M375.36,251.45c-1.59-.86-3.38-1.3-5.36-1.3s-3.74.43-5.35,1.3c-1.6.87-2.88,2.1-3.82,3.7-.94,1.6-1.41,3.51-1.41,5.73s.46,4.05,1.37,5.67c.92,1.62,2.16,2.86,3.74,3.74,1.58.88,3.36,1.32,5.35,1.32s3.79-.44,5.4-1.32c1.62-.88,2.9-2.13,3.86-3.74.95-1.62,1.43-3.51,1.43-5.67s-.47-4.12-1.41-5.73c-.94-1.6-2.21-2.84-3.8-3.7ZM375.95,265.18c-.69,1.13-1.57,1.98-2.65,2.54-1.08.56-2.22.84-3.42.84s-2.35-.28-3.4-.84c-1.04-.56-1.89-1.41-2.54-2.54-.65-1.13-.97-2.56-.97-4.3s.33-3.2.99-4.33c.66-1.13,1.52-1.98,2.58-2.54,1.06-.56,2.2-.84,3.42-.84s2.33.28,3.4.84c1.07.56,1.94,1.41,2.62,2.54.67,1.13,1.01,2.58,1.01,4.33s-.34,3.16-1.03,4.3Z"/>
    <path class="cls-1" d="M399.72,251.24c-1.21-.73-2.64-1.09-4.3-1.09-1.12,0-2.16.22-3.13.65-.97.43-1.79,1.01-2.48,1.72-.69.71-1.2,1.5-1.53,2.37v-4.47h-3.47v20.93h3.47v-10.84c0-1.45.27-2.72.8-3.82.53-1.09,1.25-1.95,2.14-2.58.89-.62,1.9-.94,3.02-.94,1.76,0,3.17.59,4.24,1.78,1.07,1.18,1.6,2.83,1.6,4.94v11.46h3.44v-12.33c0-1.78-.33-3.34-.99-4.68-.66-1.34-1.6-2.37-2.81-3.09Z"/>
    <path class="cls-1" d="M435.27,246.53c-2.1-1.07-4.61-1.6-7.54-1.6h-8.25v26.42h8.25c2.93,0,5.44-.52,7.54-1.57,2.1-1.04,3.72-2.55,4.87-4.52,1.15-1.97,1.72-4.32,1.72-7.05s-.57-5.12-1.72-7.1c-1.15-1.99-2.77-3.51-4.87-4.58ZM435.61,265.75c-1.77,1.82-4.4,2.73-7.89,2.73h-4.77v-20.7h4.77c3.49,0,6.12.94,7.89,2.81,1.77,1.87,2.65,4.41,2.65,7.62s-.88,5.72-2.65,7.54Z"/>
    <path class="cls-1" d="M449.95,255.04v-4.62h-3.47v20.93h3.47v-10.73c0-1.43.25-2.65.74-3.69.5-1.03,1.16-1.83,2-2.41.84-.57,1.81-.86,2.9-.86.2,0,.4,0,.59.02.19.01.38.04.55.1v-3.63c-1.63,0-3.05.43-4.26,1.3-1.21.87-2.06,2.06-2.54,3.59Z"/>
    <rect class="cls-1" x="460.95" y="250.42" width="3.48" height="20.93"/>
    <path class="cls-1" d="M462.7,241.95c-.79,0-1.44.24-1.95.73-.51.48-.76,1.08-.76,1.79s.27,1.35.8,1.83c.53.48,1.17.73,1.91.73s1.37-.24,1.91-.73c.53-.48.8-1.09.8-1.83s-.27-1.31-.8-1.79c-.53-.48-1.17-.73-1.91-.73Z"/>
    <path class="cls-1" d="M475.69,268.6c-.46,0-.85-.15-1.18-.46-.33-.31-.5-.75-.5-1.34v-23.71h-3.47v24.02c0,1.07.22,1.94.67,2.62.45.67,1.01,1.16,1.7,1.45s1.39.44,2.1.44c.89,0,1.65-.19,2.29-.57l-.76-2.6c-.25.1-.53.15-.84.15Z"/>
    <path class="cls-1" d="M486.04,268.6c-.46,0-.85-.15-1.18-.46-.33-.31-.5-.75-.5-1.34v-23.71h-3.48v24.02c0,1.07.22,1.94.67,2.62.45.67,1.01,1.16,1.7,1.45.69.29,1.39.44,2.1.44.89,0,1.65-.19,2.29-.57l-.76-2.6c-.25.1-.53.15-.84.15Z"/>
    <rect class="cls-1" x="491.76" y="250.42" width="3.47" height="20.93"/>
    <path class="cls-1" d="M493.52,241.95c-.79,0-1.44.24-1.95.73-.51.48-.76,1.08-.76,1.79s.27,1.35.8,1.83c.53.48,1.17.73,1.91.73s1.37-.24,1.91-.73c.53-.48.8-1.09.8-1.83s-.27-1.31-.8-1.79c-.53-.48-1.17-.73-1.91-.73Z"/>
    <path class="cls-1" d="M516.26,251.24c-1.21-.73-2.64-1.09-4.3-1.09-1.12,0-2.16.22-3.13.65-.97.43-1.79,1.01-2.48,1.72-.69.71-1.2,1.5-1.53,2.37v-4.47h-3.47v20.93h3.47v-10.84c0-1.45.27-2.72.8-3.82.53-1.09,1.25-1.95,2.14-2.58.89-.62,1.9-.94,3.02-.94,1.76,0,3.17.59,4.24,1.78,1.07,1.18,1.6,2.83,1.6,4.94v11.46h3.44v-12.33c0-1.78-.33-3.34-.99-4.68-.66-1.34-1.6-2.37-2.81-3.09Z"/>
    <path class="cls-1" d="M542.2,255.01c-.61-1.5-1.62-2.69-3.02-3.55-1.4-.86-3.03-1.3-4.89-1.3s-3.53.45-5.02,1.34c-1.49.89-2.66,2.14-3.51,3.74-.85,1.6-1.28,3.47-1.28,5.61s.43,4.02,1.28,5.63c.85,1.62,2.02,2.88,3.51,3.78,1.49.9,3.16,1.36,5.02,1.36s3.42-.45,4.85-1.34c1.43-.89,2.44-2.09,3.05-3.59v5.04c0,1.4-.29,2.61-.86,3.63-.57,1.02-1.36,1.79-2.35,2.33-.99.53-2.14.8-3.44.8-1.68,0-3.17-.47-4.47-1.41-1.3-.94-2.29-2.2-2.98-3.78l-3.17,1.37c.56,1.35,1.34,2.55,2.33,3.59.99,1.04,2.18,1.85,3.57,2.42,1.39.57,2.96.86,4.72.86,1.55,0,2.95-.25,4.2-.74,1.25-.5,2.32-1.18,3.21-2.06.89-.88,1.57-1.92,2.04-3.11.47-1.2.71-2.51.71-3.93v-21.27h-3.51v4.58ZM541.23,264.99c-.65,1.16-1.51,2.04-2.58,2.65-1.07.61-2.24.92-3.51.92s-2.45-.31-3.53-.92c-1.08-.61-1.95-1.5-2.6-2.65-.65-1.16-.97-2.54-.97-4.14s.32-3.01.97-4.14c.65-1.13,1.51-2,2.6-2.62,1.08-.61,2.26-.92,3.53-.92s2.44.31,3.51.92c1.07.61,1.93,1.48,2.58,2.62.65,1.13.97,2.51.97,4.14s-.32,2.99-.97,4.14Z"/>
    <path class="cls-1" d="M553.05,266.61c-.76,0-1.41.24-1.93.73-.52.48-.78,1.07-.78,1.76s.26,1.31.78,1.79c.52.48,1.16.73,1.93.73s1.37-.24,1.89-.73c.52-.48.78-1.08.78-1.79s-.26-1.27-.78-1.76c-.52-.48-1.15-.73-1.89-.73Z"/>
    <path class="cls-1" d="M586.37,246.53c-2.1-1.07-4.61-1.6-7.54-1.6h-8.25v26.42h8.25c2.93,0,5.44-.52,7.54-1.57,2.1-1.04,3.72-2.55,4.87-4.52,1.15-1.97,1.72-4.32,1.72-7.05s-.57-5.12-1.72-7.1c-1.15-1.99-2.77-3.51-4.87-4.58ZM586.71,265.75c-1.77,1.82-4.4,2.73-7.89,2.73h-4.77v-20.7h4.77c3.49,0,6.12.94,7.89,2.81,1.77,1.87,2.65,4.41,2.65,7.62s-.88,5.72-2.65,7.54Z"/>
    <path class="cls-1" d="M601.05,255.04v-4.62h-3.47v20.93h3.47v-10.73c0-1.43.25-2.65.74-3.69.5-1.03,1.16-1.83,2-2.41.84-.57,1.81-.86,2.9-.86.2,0,.4,0,.59.02.19.01.37.04.55.1v-3.63c-1.63,0-3.05.43-4.26,1.3-1.21.87-2.06,2.06-2.54,3.59Z"/>
    <rect class="cls-1" x="612.04" y="250.42" width="3.47" height="20.93"/>
    <path class="cls-1" d="M613.8,241.95c-.79,0-1.44.24-1.95.73-.51.48-.76,1.08-.76,1.79s.27,1.35.8,1.83c.53.48,1.17.73,1.91.73s1.37-.24,1.91-.73c.53-.48.8-1.09.8-1.83s-.27-1.31-.8-1.79c-.53-.48-1.17-.73-1.91-.73Z"/>
    <polygon class="cls-1" points="629.38 268.1 622.89 250.42 619.15 250.42 627.32 271.35 631.4 271.35 639.58 250.42 635.87 250.42 629.38 268.1"/>
    <path class="cls-1" d="M658.23,266.69c-.73.56-1.55,1.03-2.48,1.39-.93.37-1.9.55-2.92.55-1.32,0-2.53-.25-3.61-.74-1.08-.5-1.95-1.16-2.62-2-.66-.84-1.07-1.76-1.22-2.75.25.03.59.06.99.1.41.04.85.07,1.34.1.48.03.93.04,1.34.04,1.48.05,2.95-.02,4.41-.21,1.46-.19,2.81-.53,4.03-1.03,1.22-.5,2.2-1.18,2.94-2.06.74-.88,1.11-1.98,1.11-3.3,0-.94-.22-1.81-.65-2.6-.43-.79-1.03-1.49-1.79-2.1-.76-.61-1.68-1.08-2.75-1.41-1.07-.33-2.25-.5-3.55-.5-1.45,0-2.84.26-4.18.78-1.34.52-2.52,1.27-3.55,2.25-1.03.98-1.85,2.13-2.44,3.46-.6,1.32-.9,2.79-.9,4.39s.27,3.05.8,4.33c.53,1.29,1.3,2.4,2.29,3.34.99.94,2.17,1.66,3.53,2.16,1.36.5,2.86.74,4.49.74,1.43,0,2.75-.2,3.97-.61,1.22-.41,2.33-.97,3.32-1.68.99-.71,1.82-1.51,2.48-2.41l-2.6-1.95c-.46.59-1.05,1.16-1.78,1.72ZM646.3,256.8c.69-1.09,1.61-1.98,2.77-2.65,1.16-.67,2.46-1.01,3.91-1.01.97,0,1.84.16,2.62.48.78.32,1.39.75,1.83,1.3.45.55.67,1.18.67,1.89s-.27,1.34-.82,1.81c-.55.47-1.27.85-2.16,1.13-.89.28-1.86.48-2.9.59-1.04.11-2.08.17-3.09.17-.82,0-1.57-.02-2.25-.06-.69-.04-1.25-.1-1.68-.17.05-1.22.42-2.38,1.11-3.47Z"/>
    <path class="cls-1" d="M681.75,251.24c-1.21-.73-2.64-1.09-4.3-1.09-1.12,0-2.16.22-3.13.65-.97.43-1.79,1.01-2.48,1.72-.69.71-1.2,1.5-1.53,2.37v-4.47h-3.47v20.93h3.47v-10.84c0-1.45.27-2.72.8-3.82.54-1.09,1.25-1.95,2.14-2.58.89-.62,1.9-.94,3.02-.94,1.76,0,3.17.59,4.24,1.78,1.07,1.18,1.6,2.83,1.6,4.94v11.46h3.44v-12.33c0-1.78-.33-3.34-.99-4.68-.66-1.34-1.6-2.37-2.81-3.09Z"/>
    <path class="cls-1" d="M717.87,251.49c-1.49-.89-3.15-1.34-4.98-1.34s-3.42.43-4.83,1.3c-1.41.87-2.42,2.05-3.04,3.55v-11.91h-3.51v28.26h1.45c.64,0,1.14-.18,1.51-.55s.55-.87.55-1.51v-2.6c.61,1.5,1.63,2.7,3.05,3.59,1.43.89,3.03,1.34,4.81,1.34s3.49-.45,4.98-1.36c1.49-.9,2.67-2.16,3.55-3.78.88-1.62,1.32-3.49,1.32-5.63s-.44-4.01-1.32-5.61c-.88-1.6-2.06-2.85-3.55-3.74ZM718.18,264.99c-.65,1.16-1.51,2.04-2.58,2.65-1.07.61-2.24.92-3.51.92s-2.44-.31-3.51-.92c-1.07-.61-1.93-1.5-2.58-2.65-.65-1.16-.97-2.54-.97-4.14s.32-3.01.97-4.14c.65-1.13,1.51-2,2.58-2.62,1.07-.61,2.24-.92,3.51-.92s2.44.31,3.51.92c1.07.61,1.93,1.48,2.58,2.62.65,1.13.97,2.51.97,4.14s-.32,2.99-.97,4.14Z"/>
    <path class="cls-1" d="M741.87,260.89c0,1.45-.25,2.72-.74,3.8-.5,1.08-1.2,1.93-2.1,2.54-.9.61-1.93.92-3.07.92-1.73,0-3.14-.58-4.22-1.74-1.08-1.16-1.62-2.79-1.62-4.91v-11.07h-3.47v11.91c0,1.81.34,3.37,1.01,4.7.67,1.32,1.64,2.35,2.88,3.07,1.25.73,2.7,1.09,4.35,1.09.92,0,1.83-.15,2.75-.44.92-.29,1.76-.8,2.54-1.53.67-.63,1.24-1.48,1.7-2.52v4.98c0,2.14-.57,3.81-1.7,5-1.13,1.2-2.68,1.79-4.64,1.79-1.45,0-2.76-.45-3.93-1.34-1.17-.89-2.06-2.18-2.67-3.86l-3.21,1.22c.53,1.53,1.27,2.81,2.2,3.86.93,1.04,2.04,1.83,3.34,2.37,1.3.53,2.74.8,4.31.8s2.93-.25,4.14-.74c1.21-.5,2.24-1.18,3.09-2.06.85-.88,1.5-1.92,1.93-3.11.43-1.2.65-2.51.65-3.93v-21.27h-3.51v10.46Z"/>
    <path class="cls-1" d="M776.83,246.53c-2.1-1.07-4.61-1.6-7.54-1.6h-8.25v26.42h8.25c2.93,0,5.44-.52,7.54-1.57,2.1-1.04,3.72-2.55,4.87-4.52,1.15-1.97,1.72-4.32,1.72-7.05s-.57-5.12-1.72-7.1c-1.15-1.99-2.77-3.51-4.87-4.58ZM777.18,265.75c-1.77,1.82-4.4,2.73-7.89,2.73h-4.77v-20.7h4.77c3.49,0,6.12.94,7.89,2.81,1.77,1.87,2.65,4.41,2.65,7.62s-.88,5.72-2.65,7.54Z"/>
    <path class="cls-1" d="M803.22,266.69c-.73.56-1.55,1.03-2.48,1.39-.93.37-1.9.55-2.92.55-1.32,0-2.53-.25-3.61-.74-1.08-.5-1.95-1.16-2.62-2-.66-.84-1.07-1.76-1.22-2.75.25.03.59.06.99.1.41.04.85.07,1.34.1.48.03.93.04,1.34.04,1.48.05,2.95-.02,4.41-.21,1.46-.19,2.81-.53,4.03-1.03,1.22-.5,2.2-1.18,2.94-2.06.74-.88,1.11-1.98,1.11-3.3,0-.94-.22-1.81-.65-2.6-.43-.79-1.03-1.49-1.79-2.1-.76-.61-1.68-1.08-2.75-1.41-1.07-.33-2.25-.5-3.55-.5-1.45,0-2.84.26-4.18.78-1.34.52-2.52,1.27-3.55,2.25-1.03.98-1.85,2.13-2.44,3.46-.6,1.32-.9,2.79-.9,4.39s.27,3.05.8,4.33c.53,1.29,1.3,2.4,2.29,3.34.99.94,2.17,1.66,3.53,2.16,1.36.5,2.86.74,4.49.74,1.43,0,2.75-.2,3.97-.61,1.22-.41,2.33-.97,3.32-1.68.99-.71,1.82-1.51,2.48-2.41l-2.6-1.95c-.46.59-1.05,1.16-1.78,1.72ZM791.28,256.8c.69-1.09,1.61-1.98,2.77-2.65,1.16-.67,2.46-1.01,3.91-1.01.97,0,1.84.16,2.62.48.78.32,1.39.75,1.83,1.3.45.55.67,1.18.67,1.89s-.27,1.34-.82,1.81c-.55.47-1.27.85-2.16,1.13-.89.28-1.86.48-2.9.59-1.04.11-2.08.17-3.09.17-.82,0-1.57-.02-2.25-.06-.69-.04-1.25-.1-1.68-.17.05-1.22.42-2.38,1.11-3.47Z"/>
    <path class="cls-1" d="M816.98,268.6c-.46,0-.85-.15-1.18-.46-.33-.31-.5-.75-.5-1.34v-23.71h-3.47v24.02c0,1.07.22,1.94.67,2.62.44.67,1.01,1.16,1.7,1.45s1.39.44,2.1.44c.89,0,1.65-.19,2.29-.57l-.76-2.6c-.25.1-.53.15-.84.15Z"/>
    <rect class="cls-1" x="822.71" y="250.42" width="3.47" height="20.93"/>
    <path class="cls-1" d="M824.47,241.95c-.79,0-1.44.24-1.95.73-.51.48-.76,1.08-.76,1.79s.27,1.35.8,1.83c.53.48,1.17.73,1.91.73s1.37-.24,1.91-.73c.53-.48.8-1.09.8-1.83s-.27-1.31-.8-1.79c-.54-.48-1.17-.73-1.91-.73Z"/>
    <polygon class="cls-1" points="840.05 268.1 833.55 250.42 829.81 250.42 837.98 271.35 842.07 271.35 850.24 250.42 846.54 250.42 840.05 268.1"/>
    <path class="cls-1" d="M868.89,266.69c-.73.56-1.55,1.03-2.48,1.39-.93.37-1.9.55-2.92.55-1.32,0-2.53-.25-3.61-.74-1.08-.5-1.95-1.16-2.62-2-.66-.84-1.07-1.76-1.22-2.75.25.03.59.06.99.1.41.04.85.07,1.34.1.48.03.93.04,1.34.04,1.48.05,2.95-.02,4.41-.21,1.46-.19,2.81-.53,4.03-1.03,1.22-.5,2.2-1.18,2.94-2.06.74-.88,1.11-1.98,1.11-3.3,0-.94-.22-1.81-.65-2.6-.43-.79-1.03-1.49-1.79-2.1-.76-.61-1.68-1.08-2.75-1.41-1.07-.33-2.25-.5-3.55-.5-1.45,0-2.84.26-4.18.78-1.34.52-2.52,1.27-3.55,2.25-1.03.98-1.85,2.13-2.44,3.46-.6,1.32-.9,2.79-.9,4.39s.27,3.05.8,4.33c.53,1.29,1.3,2.4,2.29,3.34.99.94,2.17,1.66,3.53,2.16,1.36.5,2.86.74,4.49.74,1.43,0,2.75-.2,3.97-.61,1.22-.41,2.33-.97,3.32-1.68.99-.71,1.82-1.51,2.48-2.41l-2.6-1.95c-.46.59-1.05,1.16-1.78,1.72ZM856.96,256.8c.69-1.09,1.61-1.98,2.77-2.65,1.16-.67,2.46-1.01,3.91-1.01.97,0,1.84.16,2.62.48.78.32,1.39.75,1.83,1.3.45.55.67,1.18.67,1.89s-.27,1.34-.82,1.81c-.55.47-1.27.85-2.16,1.13-.89.28-1.86.48-2.9.59-1.04.11-2.08.17-3.09.17-.82,0-1.57-.02-2.25-.06-.69-.04-1.25-.1-1.68-.17.05-1.22.42-2.38,1.11-3.47Z"/>
    <path class="cls-1" d="M880.98,255.04v-4.62h-3.47v20.93h3.47v-10.73c0-1.43.25-2.65.74-3.69.5-1.03,1.16-1.83,2-2.41.84-.57,1.81-.86,2.9-.86.2,0,.4,0,.59.02.19.01.38.04.55.1v-3.63c-1.63,0-3.05.43-4.26,1.3-1.21.87-2.06,2.06-2.54,3.59Z"/>
    <path class="cls-1" d="M906.72,260.89c0,1.45-.25,2.72-.74,3.8-.5,1.08-1.2,1.93-2.1,2.54-.9.61-1.93.92-3.07.92-1.73,0-3.14-.58-4.22-1.74-1.08-1.16-1.62-2.79-1.62-4.91v-11.07h-3.47v11.91c0,1.81.34,3.37,1.01,4.7.67,1.32,1.64,2.35,2.88,3.07,1.25.73,2.7,1.09,4.35,1.09.92,0,1.83-.15,2.75-.44.92-.29,1.76-.8,2.54-1.53.67-.63,1.24-1.48,1.7-2.52v4.98c0,2.14-.57,3.81-1.7,5-1.13,1.2-2.68,1.79-4.64,1.79-1.45,0-2.76-.45-3.93-1.34-1.17-.89-2.06-2.18-2.67-3.86l-3.21,1.22c.53,1.53,1.27,2.81,2.2,3.86.93,1.04,2.04,1.83,3.34,2.37,1.3.53,2.74.8,4.31.8s2.93-.25,4.14-.74c1.21-.5,2.24-1.18,3.09-2.06.85-.88,1.5-1.92,1.93-3.11.43-1.2.65-2.51.65-3.93v-21.27h-3.51v10.46Z"/>
    <path class="cls-1" d="M918.99,267.34c-.52-.48-1.15-.73-1.89-.73s-1.41.24-1.93.73c-.52.48-.78,1.07-.78,1.76s.26,1.31.78,1.79c.52.48,1.16.73,1.93.73s1.37-.24,1.89-.73c.52-.48.78-1.08.78-1.79s-.26-1.27-.78-1.76Z"/>
  </g>
  <path class="cls-1" d="M268.18,121.98v-61.94l-1.22-9.75h78.52v16.58h-53.53v11.09h40.36v16.95h-40.36v27.07h-23.78Z"/>
  <path class="cls-1" d="M381.2,121.98c-8.62,0-14.9-1.93-18.84-5.79-3.94-3.86-5.91-10.02-5.91-18.47v-23.29c0-8.29,1.95-14.39,5.85-18.29,3.9-3.9,10.2-5.85,18.9-5.85h35.6c8.53,0,14.77,1.95,18.72,5.85,3.94,3.9,5.91,10,5.91,18.29v23.29c0,8.45-1.99,14.61-5.97,18.47-3.98,3.86-10.2,5.79-18.65,5.79h-35.6ZM389.62,105.4h18.9c6.34,0,9.51-2.88,9.51-8.66v-21.34c0-5.69-3.17-8.53-9.51-8.53h-18.9c-3.25,0-5.69.65-7.32,1.95-1.63,1.3-2.44,3.5-2.44,6.58v21.34c0,3.01.81,5.2,2.44,6.58,1.62,1.38,4.06,2.07,7.32,2.07Z"/>
  <path class="cls-1" d="M538.85,123.2c-3.25,0-6.87-.51-10.85-1.52-3.98-1.02-7.93-3.52-11.83-7.5l-5.12-5.12c-2.44-2.44-4.78-4.43-7.01-5.97-2.24-1.54-4.78-2.7-7.62-3.47-2.85-.77-6.42-1.16-10.73-1.16h-.98v23.53h-23.78v-61.94l-1.22-9.88h56.45c5.2,0,9.41.63,12.62,1.89,3.21,1.26,5.69,2.93,7.44,5,1.75,2.07,2.95,4.41,3.6,7.01.65,2.6.98,5.24.98,7.93v2.32c0,4.88-1.24,9.25-3.72,13.11-2.48,3.86-6.4,6.61-11.77,8.23,2.03,1.22,3.96,2.46,5.79,3.72,1.83,1.26,3.92,2.58,6.28,3.96,2.68,1.55,5.18,2.66,7.5,3.35,2.32.69,4.25,1.12,5.79,1.28,1.54.16,2.44.24,2.68.24l-3.66,13.78c-.98.24-2.46.51-4.45.79-1.99.28-4.13.43-6.4.43ZM498.86,82.23c2.03,0,4-.04,5.91-.12,1.91-.08,3.64-.2,5.18-.37,2.76-.32,4.65-1.2,5.67-2.62,1.02-1.42,1.52-3.15,1.52-5.18v-1.34c0-1.79-.51-3.17-1.52-4.15-1.02-.98-2.87-1.46-5.55-1.46h-25.36v14.75c2.03.08,4.27.18,6.71.3,2.44.12,4.92.18,7.44.18Z"/>
  <path class="cls-1" d="M564.34,121.98V50.29h78.28v16.58h-54.5v10.12h40.36v16.95h-40.36v11.34h52.55l7.32,15.36c0,.33-1.1.63-3.29.91-2.19.29-5.97.43-11.34.43h-69.01Z"/>
  <path class="cls-1" d="M650.42,121.98l4.63-7.32,25.85-28.53-30.48-35.85h30.6l15,22.07h1.34l15-22.07h30.6l-4.76,7.19-25.73,28.65,30.48,35.85h-30.6l-15-22.19h-1.34l-15,22.19h-30.6Z"/>
  <g>
    <path class="cls-1" d="M268.18,217.96v-61.94l-1.22-9.75h56.58c9.83,0,17.21,1.95,22.13,5.85,4.92,3.9,7.38,10,7.38,18.29v23.29c0,8.45-2.44,14.61-7.32,18.47-4.88,3.86-12.27,5.79-22.19,5.79h-55.36ZM291.96,201.13h27.92c6.26,0,9.43-2.88,9.51-8.66v-21.09c0-2.36-.69-4.37-2.07-6.04-1.38-1.67-3.86-2.5-7.44-2.5h-27.92v38.29Z"/>
    <path class="cls-1" d="M449.24,219.18c-3.25,0-6.87-.51-10.85-1.52-3.98-1.02-7.92-3.52-11.83-7.5l-5.12-5.12c-2.44-2.44-4.78-4.43-7.01-5.97-2.24-1.54-4.78-2.7-7.62-3.47-2.85-.77-6.42-1.16-10.73-1.16h-.98v23.53h-23.78v-61.94l-1.22-9.88h56.45c5.2,0,9.41.63,12.62,1.89,3.21,1.26,5.69,2.93,7.44,5,1.75,2.07,2.95,4.41,3.6,7.01.65,2.6.97,5.24.97,7.93v2.32c0,4.88-1.24,9.25-3.72,13.11-2.48,3.86-6.4,6.61-11.77,8.23,2.03,1.22,3.96,2.46,5.79,3.72,1.83,1.26,3.92,2.58,6.28,3.96,2.68,1.55,5.18,2.66,7.5,3.35,2.32.69,4.25,1.12,5.79,1.28,1.54.16,2.44.24,2.68.24l-3.66,13.78c-.98.24-2.46.51-4.45.79-1.99.28-4.13.43-6.4.43ZM409.25,178.21c2.03,0,4-.04,5.91-.12,1.91-.08,3.64-.2,5.18-.37,2.76-.32,4.65-1.2,5.67-2.62,1.02-1.42,1.52-3.15,1.52-5.18v-1.34c0-1.79-.51-3.17-1.52-4.15-1.02-.98-2.87-1.46-5.55-1.46h-25.36v14.75c2.03.08,4.27.18,6.71.3,2.44.12,4.92.18,7.44.18Z"/>
    <path class="cls-1" d="M474.72,217.96v-71.69h23.41v71.69h-23.41Z"/>
    <path class="cls-1" d="M517.64,217.96l1.22-9.75v-61.94h23.41v54.99h43.16l7.32,15.36c0,.33-1.1.63-3.29.91-2.19.29-5.97.43-11.34.43h-60.48Z"/>
    <path class="cls-1" d="M602.5,217.96l1.22-9.75v-61.94h23.41v54.99h43.16l7.32,15.36c0,.33-1.1.63-3.29.91-2.19.29-5.97.43-11.34.43h-60.48Z"/>
    <path class="cls-1" d="M687.36,217.96v-71.69h23.41v71.69h-23.41Z"/>
    <path class="cls-1" d="M731.5,217.96v-61.94l-1.22-9.75h22.43l34.38,34.87,4.76,5.36h1.34v-40.24h23.41v71.69h-20.36l-35.36-35.24-4.75-5.73h-1.22v40.97h-23.41Z"/>
    <path class="cls-1" d="M859.65,217.96c-8.7,0-15-1.91-18.9-5.73-3.9-3.82-5.85-10-5.85-18.53v-22.31c0-8.78,2.15-15.18,6.46-19.2,4.31-4.02,10.4-6.04,18.29-6.04h40.72c5.61,0,9.89.31,12.86.91,2.97.61,4.45,1.24,4.45,1.89l-3.78,15.24c-2.03-.24-6-.51-11.89-.79-5.89-.28-13.31-.43-22.25-.43h-11.34c-3.82,0-6.4.71-7.74,2.13-1.34,1.42-2.01,3.6-2.01,6.52v20.85c0,2.76.59,4.9,1.77,6.4,1.18,1.5,3.84,2.26,7.99,2.26h9.88c3.74,0,7.11-.02,10.12-.06,3-.04,5.65-.1,7.92-.18v-9.27l-4.88.12-15.97,1.22v-16.83h44.14v36.7l1.22,2.56c0,.65-1.71,1.24-5.12,1.77-3.41.53-9.19.79-17.31.79h-38.77Z"/>
  </g>
  <polygon class="cls-2" points="217.99 193.88 217.99 50.16 217.74 50.16 146.01 121.9 217.99 193.88"/>
  <polygon class="cls-2" points="167.58 50.16 74.27 50.16 120.92 96.82 167.58 50.16"/>
  <polygon class="cls-1" points="50.16 76.22 50.16 167.58 95.84 121.9 50.16 76.22"/>
  <polygon class="cls-2" points="50.16 217.74 50.16 217.99 191.93 217.99 120.92 146.98 50.16 217.74"/>
</svg>