<?xml version="1.0" encoding="UTF-8"?>
<svg id="Calque_1" data-name="Calque 1" xmlns="http://www.w3.org/2000/svg" viewBox="35 35 880 200">
  <defs>
    <style>
      .cls-1 {
        fill: #11284e;
      }

      .cls-2 {
        fill: #e3aa00;
      }
    </style>
  </defs>
  <path class="cls-1" d="M268.18,121.98v-61.94l-1.22-9.75h78.52v16.58h-53.53v11.09h40.36v16.95h-40.36v27.07h-23.78Z"/>
  <path class="cls-1" d="M381.2,121.98c-8.62,0-14.9-1.93-18.84-5.79-3.94-3.86-5.91-10.02-5.91-18.47v-23.29c0-8.29,1.95-14.39,5.85-18.29,3.9-3.9,10.2-5.85,18.9-5.85h35.6c8.53,0,14.77,1.95,18.72,5.85,3.94,3.9,5.91,10,5.91,18.29v23.29c0,8.45-1.99,14.61-5.97,18.47-3.98,3.86-10.2,5.79-18.65,5.79h-35.6ZM389.62,105.4h18.9c6.34,0,9.51-2.88,9.51-8.66v-21.34c0-5.69-3.17-8.53-9.51-8.53h-18.9c-3.25,0-5.69.65-7.32,1.95-1.63,1.3-2.44,3.5-2.44,6.58v21.34c0,3.01.81,5.2,2.44,6.58,1.62,1.38,4.06,2.07,7.32,2.07Z"/>
  <path class="cls-1" d="M538.85,123.2c-3.25,0-6.87-.51-10.85-1.52-3.98-1.02-7.93-3.52-11.83-7.5l-5.12-5.12c-2.44-2.44-4.78-4.43-7.01-5.97-2.24-1.54-4.78-2.7-7.62-3.47-2.85-.77-6.42-1.16-10.73-1.16h-.98v23.53h-23.78v-61.94l-1.22-9.88h56.45c5.2,0,9.41.63,12.62,1.89,3.21,1.26,5.69,2.93,7.44,5,1.75,2.07,2.95,4.41,3.6,7.01.65,2.6.98,5.24.98,7.93v2.32c0,4.88-1.24,9.25-3.72,13.11-2.48,3.86-6.4,6.61-11.77,8.23,2.03,1.22,3.96,2.46,5.79,3.72,1.83,1.26,3.92,2.58,6.28,3.96,2.68,1.55,5.18,2.66,7.5,3.35,2.32.69,4.25,1.12,5.79,1.28,1.54.16,2.44.24,2.68.24l-3.66,13.78c-.98.24-2.46.51-4.45.79-1.99.28-4.13.43-6.4.43ZM498.86,82.23c2.03,0,4-.04,5.91-.12,1.91-.08,3.64-.2,5.18-.37,2.76-.32,4.65-1.2,5.67-2.62,1.02-1.42,1.52-3.15,1.52-5.18v-1.34c0-1.79-.51-3.17-1.52-4.15-1.02-.98-2.87-1.46-5.55-1.46h-25.36v14.75c2.03.08,4.27.18,6.71.3,2.44.12,4.92.18,7.44.18Z"/>
  <path class="cls-1" d="M564.34,121.98V50.29h78.28v16.58h-54.5v10.12h40.36v16.95h-40.36v11.34h52.55l7.32,15.36c0,.33-1.1.63-3.29.91-2.19.29-5.97.43-11.34.43h-69.01Z"/>
  <path class="cls-1" d="M650.42,121.98l4.63-7.32,25.85-28.53-30.48-35.85h30.6l15,22.07h1.34l15-22.07h30.6l-4.76,7.19-25.73,28.65,30.48,35.85h-30.6l-15-22.19h-1.34l-15,22.19h-30.6Z"/>
  <g>
    <path class="cls-1" d="M268.18,217.96v-61.94l-1.22-9.75h56.58c9.83,0,17.21,1.95,22.13,5.85,4.92,3.9,7.38,10,7.38,18.29v23.29c0,8.45-2.44,14.61-7.32,18.47-4.88,3.86-12.27,5.79-22.19,5.79h-55.36ZM291.96,201.13h27.92c6.26,0,9.43-2.88,9.51-8.66v-21.09c0-2.36-.69-4.37-2.07-6.04-1.38-1.67-3.86-2.5-7.44-2.5h-27.92v38.29Z"/>
    <path class="cls-1" d="M449.24,219.18c-3.25,0-6.87-.51-10.85-1.52-3.98-1.02-7.92-3.52-11.83-7.5l-5.12-5.12c-2.44-2.44-4.78-4.43-7.01-5.97-2.24-1.54-4.78-2.7-7.62-3.47-2.85-.77-6.42-1.16-10.73-1.16h-.98v23.53h-23.78v-61.94l-1.22-9.88h56.45c5.2,0,9.41.63,12.62,1.89,3.21,1.26,5.69,2.93,7.44,5,1.75,2.07,2.95,4.41,3.6,7.01.65,2.6.97,5.24.97,7.93v2.32c0,4.88-1.24,9.25-3.72,13.11-2.48,3.86-6.4,6.61-11.77,8.23,2.03,1.22,3.96,2.46,5.79,3.72,1.83,1.26,3.92,2.58,6.28,3.96,2.68,1.55,5.18,2.66,7.5,3.35,2.32.69,4.25,1.12,5.79,1.28,1.54.16,2.44.24,2.68.24l-3.66,13.78c-.98.24-2.46.51-4.45.79-1.99.28-4.13.43-6.4.43ZM409.25,178.21c2.03,0,4-.04,5.91-.12,1.91-.08,3.64-.2,5.18-.37,2.76-.32,4.65-1.2,5.67-2.62,1.02-1.42,1.52-3.15,1.52-5.18v-1.34c0-1.79-.51-3.17-1.52-4.15-1.02-.98-2.87-1.46-5.55-1.46h-25.36v14.75c2.03.08,4.27.18,6.71.3,2.44.12,4.92.18,7.44.18Z"/>
    <path class="cls-1" d="M474.72,217.96v-71.69h23.41v71.69h-23.41Z"/>
    <path class="cls-1" d="M517.64,217.96l1.22-9.75v-61.94h23.41v54.99h43.16l7.32,15.36c0,.33-1.1.63-3.29.91-2.19.29-5.97.43-11.34.43h-60.48Z"/>
    <path class="cls-1" d="M602.5,217.96l1.22-9.75v-61.94h23.41v54.99h43.16l7.32,15.36c0,.33-1.1.63-3.29.91-2.19.29-5.97.43-11.34.43h-60.48Z"/>
    <path class="cls-1" d="M687.36,217.96v-71.69h23.41v71.69h-23.41Z"/>
    <path class="cls-1" d="M731.5,217.96v-61.94l-1.22-9.75h22.43l34.38,34.87,4.76,5.36h1.34v-40.24h23.41v71.69h-20.36l-35.36-35.24-4.75-5.73h-1.22v40.97h-23.41Z"/>
    <path class="cls-1" d="M859.65,217.96c-8.7,0-15-1.91-18.9-5.73-3.9-3.82-5.85-10-5.85-18.53v-22.31c0-8.78,2.15-15.18,6.46-19.2,4.31-4.02,10.4-6.04,18.29-6.04h40.72c5.61,0,9.89.31,12.86.91,2.97.61,4.45,1.24,4.45,1.89l-3.78,15.24c-2.03-.24-6-.51-11.89-.79-5.89-.28-13.31-.43-22.25-.43h-11.34c-3.82,0-6.4.71-7.74,2.13-1.34,1.42-2.01,3.6-2.01,6.52v20.85c0,2.76.59,4.9,1.77,6.4,1.18,1.5,3.84,2.26,7.99,2.26h9.88c3.74,0,7.11-.02,10.12-.06,3-.04,5.65-.1,7.92-.18v-9.27l-4.88.12-15.97,1.22v-16.83h44.14v36.7l1.22,2.56c0,.65-1.71,1.24-5.12,1.77-3.41.53-9.19.79-17.31.79h-38.77Z"/>
  </g>
  <polygon class="cls-2" points="217.99 193.88 217.99 50.16 217.74 50.16 146.01 121.9 217.99 193.88"/>
  <polygon class="cls-2" points="167.58 50.16 74.27 50.16 120.92 96.82 167.58 50.16"/>
  <polygon class="cls-1" points="50.16 76.22 50.16 167.58 95.84 121.9 50.16 76.22"/>
  <polygon class="cls-2" points="50.16 217.74 50.16 217.99 191.93 217.99 120.92 146.98 50.16 217.74"/>
</svg>